<svg id="Capa_1" enable-background="new 0 0 512 512" height="512" viewBox="0 0 512 512" width="512" xmlns="http://www.w3.org/2000/svg"><g><g><path d="m403.318 306.937h5.217c31.986 0 58.009-26.022 58.009-58.008 0-29.617-22.316-54.105-51.015-57.571l-9.276-124.351c8.434-6.939 13.823-17.453 13.823-29.202-.001-20.846-16.96-37.805-37.805-37.805s-37.805 16.959-37.805 37.805c0 11.749 5.388 22.262 13.822 29.201l-6.067 81.316c-12.565-5.096-26.29-7.911-40.662-7.911h-38.059c-4.143 0-7.5 3.358-7.5 7.5s3.357 7.5 7.5 7.5h38.06c51.567 0 93.521 41.953 93.521 93.52 0 24.977-9.729 48.461-27.394 66.126s-41.149 27.394-66.127 27.394h-111.12c-51.567 0-93.521-41.953-93.521-93.52 0-24.978 9.729-48.462 27.394-66.127s41.149-27.393 66.127-27.393h38.06c4.143 0 7.5-3.358 7.5-7.5s-3.357-7.5-7.5-7.5h-38.06c-14.166 0-27.914 2.703-40.666 7.853l-6.063-81.257c8.434-6.939 13.823-17.453 13.823-29.202 0-20.846-16.959-37.805-37.805-37.805s-37.804 16.959-37.804 37.805c0 11.749 5.389 22.263 13.823 29.202l-9.276 124.351c-28.698 3.467-51.015 27.954-51.015 57.571 0 31.986 26.022 58.008 58.009 58.008h5.298c17.627 27.76 47.506 47.005 81.971 50.074-11.166 5.222-21.731 11.781-31.404 19.592-27.28 22.016-46.377 53.018-53.771 87.295l-3.141 14.562c-1.771 8.224.244 16.694 5.53 23.24 5.285 6.546 13.14 10.3 21.551 10.3h253c8.411 0 16.266-3.754 21.552-10.299 5.286-6.546 7.302-15.017 5.529-23.242l-3.139-14.557c-.615-2.86-1.302-5.649-2.039-8.29-1.114-3.99-5.253-6.322-9.241-5.206-3.989 1.115-6.32 5.252-5.206 9.241.657 2.352 1.27 4.845 1.823 7.414l3.139 14.559c.812 3.771-.112 7.655-2.537 10.657-2.423 3.001-6.025 4.723-9.881 4.723h-253c-3.855 0-7.458-1.722-9.881-4.723-2.425-3.002-3.35-6.887-2.538-10.656l3.14-14.56c6.578-30.487 23.417-58.097 47.47-77.91v3.219c0 7.915 1.049 15.754 3.116 23.302.913 3.332 3.934 5.52 7.229 5.52.655 0 1.322-.087 1.985-.269 3.995-1.095 6.347-5.22 5.252-9.215-1.714-6.256-2.583-12.762-2.583-19.338v-13.979c21.902-13.588 47.383-20.941 73.31-20.941 26.371 0 51.667 7.499 73.31 20.943v13.977c0 40.423-32.887 73.31-73.31 73.31-21.649 0-42.07-9.496-56.025-26.054-2.669-3.167-7.401-3.57-10.567-.901-3.168 2.669-3.571 7.401-.901 10.568 16.809 19.947 41.411 31.387 67.493 31.387 48.694 0 88.31-39.616 88.31-88.31v-3.219c13.235 10.893 24.546 24.293 33.134 39.759 2.01 3.621 6.574 4.927 10.197 2.917 3.621-2.011 4.927-6.577 2.916-10.198-15.972-28.766-40.428-51.105-69.247-64.616 25.305-2.239 48.802-13.168 66.985-31.35 5.747-5.748 10.769-12.027 15.023-18.726zm48.225-58.008c0 22.788-17.818 41.484-40.253 42.911 5.759-13.376 8.79-27.909 8.79-42.909 0-15.236-3.162-29.746-8.855-42.917 22.465 1.394 40.318 20.105 40.318 42.915zm-69.272-233.929c12.574 0 22.805 10.23 22.805 22.805s-10.23 22.805-22.805 22.805-22.805-10.23-22.805-22.805 10.23-22.805 22.805-22.805zm-15.544 140.515 6.052-81.113c3.034.788 6.215 1.208 9.492 1.208s6.457-.42 9.491-1.208l8.344 111.855c-8.83-12.438-20.215-22.939-33.379-30.742zm-236.998-140.515c12.574 0 22.805 10.23 22.805 22.805s-10.23 22.805-22.805 22.805-22.805-10.23-22.805-22.805 10.231-22.805 22.805-22.805zm0 60.61c3.277 0 6.458-.42 9.492-1.208l6.046 81.037c-7.767 4.602-15.01 10.207-21.562 16.758-4.359 4.359-8.297 9.027-11.803 13.949l8.336-111.743c3.034.787 6.215 1.207 9.491 1.207zm-69.272 173.319c0-22.788 17.819-41.484 40.254-42.91-5.76 13.377-8.791 27.911-8.791 42.912 0 15.235 3.162 29.744 8.854 42.914-22.465-1.396-40.317-20.106-40.317-42.916z"/><path d="m124.25 248.929c0 42.012 34.18 76.191 76.191 76.191h111.117c42.012 0 76.191-34.179 76.191-76.191s-34.18-76.191-76.191-76.191h-111.117c-42.011 0-76.191 34.179-76.191 76.191zm248.5 0c0 33.741-27.45 61.191-61.191 61.191h-111.118c-33.741 0-61.191-27.45-61.191-61.191s27.45-61.191 61.191-61.191h111.117c33.742 0 61.192 27.45 61.192 61.191z"/><path d="m311.559 292.795c24.188 0 43.866-19.678 43.866-43.866 0-12.809-5.587-24.948-15.329-33.303-2.226-1.908-5.355-2.346-8.018-1.12l-60.02 27.609c-2.66 1.224-4.365 3.885-4.365 6.813 0 24.189 19.678 43.867 43.866 43.867zm22.049-62.482c4.374 5.176 6.816 11.75 6.816 18.616 0 15.917-12.949 28.866-28.866 28.866-14.34 0-26.271-10.51-28.493-24.232z"/><path d="m171.904 215.626c-9.742 8.355-15.329 20.494-15.329 33.303 0 24.188 19.679 43.866 43.866 43.866s43.865-19.678 43.865-43.866c0-2.929-1.705-5.59-4.365-6.813l-60.02-27.609c-2.661-1.226-5.792-.789-8.017 1.119zm28.537 62.169c-15.917 0-28.866-12.949-28.866-28.866 0-6.866 2.442-13.44 6.816-18.616l50.543 23.25c-2.222 13.722-14.153 24.232-28.493 24.232z"/><path d="m272.163 431.187c13.047 0 23.662-10.615 23.662-23.663s-10.615-23.663-23.662-23.663h-32.326c-13.047 0-23.662 10.615-23.662 23.663s10.615 23.663 23.662 23.663zm-40.988-23.663c0-4.776 3.886-8.663 8.662-8.663h32.326c4.776 0 8.662 3.886 8.662 8.663s-3.886 8.663-8.662 8.663h-32.326c-4.776 0-8.662-3.886-8.662-8.663z"/></g></g></svg>